<svg width="24" height="24" viewBox="0 0 24 24" fill="none" xmlns="http://www.w3.org/2000/svg">
<mask id="mask0_522_1913" style="mask-type:alpha" maskUnits="userSpaceOnUse" x="0" y="0" width="24" height="24">
<rect width="24" height="24" fill="#D9D9D9"/>
</mask>
<g mask="url(#mask0_522_1913)">
<path d="M5.74995 12.05C5.74995 12.3423 5.76982 12.6337 5.80957 12.924C5.84932 13.2144 5.91727 13.5006 6.01342 13.7827C6.07752 13.9955 6.07079 14.199 5.99322 14.3933C5.91566 14.5875 5.78393 14.7269 5.59805 14.8115C5.4019 14.9064 5.20671 14.9141 5.01247 14.8346C4.81826 14.7551 4.6891 14.609 4.625 14.3961C4.49167 14.0192 4.39583 13.6324 4.3375 13.2356C4.27917 12.8388 4.25 12.4436 4.25 12.05C4.25 9.88717 5.00256 8.04647 6.50768 6.52789C8.01281 5.0093 9.84357 4.25001 12 4.25001H12.7808L11.4577 2.92689C11.3192 2.78844 11.2484 2.6144 11.2452 2.40479C11.242 2.19519 11.3128 2.01795 11.4577 1.87309C11.6025 1.7282 11.7782 1.65576 11.9846 1.65576C12.191 1.65576 12.3666 1.7282 12.5115 1.87309L15.0057 4.36731C15.1865 4.54808 15.2769 4.75897 15.2769 4.99999C15.2769 5.241 15.1865 5.45189 15.0057 5.63266L12.5115 8.12689C12.3731 8.26535 12.199 8.33619 11.9894 8.33939C11.7798 8.3426 11.6025 8.27177 11.4577 8.12689C11.3128 7.98202 11.2404 7.80639 11.2404 7.59999C11.2404 7.39359 11.3128 7.21795 11.4577 7.07309L12.7808 5.74996H12C10.2628 5.74996 8.78683 6.3615 7.57207 7.58459C6.35732 8.80767 5.74995 10.2961 5.74995 12.05ZM18.25 11.95C18.25 11.6577 18.2301 11.3663 18.1904 11.0759C18.1506 10.7856 18.0827 10.4993 17.9865 10.2173C17.9224 10.0045 17.9292 9.80094 18.0067 9.60671C18.0843 9.41249 18.216 9.27308 18.4019 9.18846C18.5981 9.09359 18.7916 9.0859 18.9827 9.16539C19.1737 9.24487 19.3013 9.39102 19.3654 9.60384C19.4987 9.98075 19.5961 10.3676 19.6577 10.7644C19.7192 11.1612 19.75 11.5564 19.75 11.95C19.75 14.1128 18.9974 15.9535 17.4923 17.4721C15.9871 18.9907 14.1564 19.75 12 19.75H11.2192L12.5423 21.0731C12.6807 21.2115 12.7516 21.3856 12.7548 21.5952C12.758 21.8048 12.6871 21.982 12.5423 22.1269C12.3974 22.2718 12.2218 22.3442 12.0153 22.3442C11.8089 22.3442 11.6333 22.2718 11.4885 22.1269L8.99422 19.6327C8.81346 19.4519 8.72308 19.241 8.72308 19C8.72308 18.759 8.81346 18.5481 8.99422 18.3673L11.4885 15.8731C11.6269 15.7346 11.8009 15.6638 12.0106 15.6606C12.2202 15.6574 12.3974 15.7282 12.5423 15.8731C12.6871 16.018 12.7596 16.1936 12.7596 16.4C12.7596 16.6064 12.6871 16.782 12.5423 16.9269L11.2192 18.25H12C13.7372 18.25 15.2131 17.6385 16.4279 16.4154C17.6426 15.1923 18.25 13.7038 18.25 11.95Z" fill="#1C1B1F"/>
</g>
</svg>
