<svg width="24" height="24" viewBox="0 0 24 24" fill="none" xmlns="http://www.w3.org/2000/svg">
<path fill-rule="evenodd" clip-rule="evenodd" d="M9.0179 20.2994C9.326 20.0225 9.8002 20.0479 10.077 20.356C11.1533 21.5538 12.7621 21.5425 13.8312 20.3553C14.1084 20.0475 14.5826 20.0227 14.8904 20.2999C15.1982 20.5771 15.223 21.0514 14.9458 21.3592C13.2867 23.2014 10.6394 23.2261 8.9613 21.3585C8.68445 21.0504 8.70979 20.5762 9.0179 20.2994Z" fill="#191F28"/>
<path fill-rule="evenodd" clip-rule="evenodd" d="M20.0032 10.5413C20.0757 10.6766 20.153 10.809 20.2344 10.9451L20.3036 11.0605L20.3036 11.0605C20.5047 11.3946 20.7382 11.7825 20.9163 12.2487C21.1218 12.7864 21.2499 13.4102 21.2499 14.2205C21.2499 14.2421 21.249 14.2638 21.2471 14.2853C21.1744 15.1232 20.9255 15.8584 20.4519 16.471C19.9803 17.0809 19.3291 17.5137 18.5437 17.8213C17.0091 18.4223 14.8169 18.5976 11.9999 18.5976C9.18425 18.5976 6.99211 18.4251 5.45756 17.8257C4.67195 17.5188 4.02025 17.0862 3.54838 16.4754C3.07455 15.862 2.82565 15.1254 2.75275 14.2854C2.75088 14.2638 2.74994 14.2422 2.74994 14.2205C2.74994 13.4102 2.87806 12.7864 3.08355 12.2487C3.26173 11.7825 3.49518 11.3946 3.69627 11.0604L3.76552 10.9451C3.98594 10.5762 4.17726 10.2343 4.32082 9.78929C4.46393 9.34572 4.56879 8.7689 4.56879 7.94511C4.56879 4.73407 7.55654 1.25 11.9999 1.25C12.6688 1.25 13.3047 1.32894 13.9023 1.47401C13.5644 1.88346 13.2825 2.34091 13.0684 2.83459C12.727 2.77936 12.3705 2.75 11.9999 2.75C8.35288 2.75 6.06879 5.59421 6.06879 7.94511C6.06879 8.90147 5.94628 9.63642 5.74836 10.2499C5.55089 10.8619 5.2875 11.3223 5.05321 11.7144L4.98516 11.828C4.77769 12.174 4.61297 12.4486 4.48472 12.7842C4.3515 13.1328 4.25336 13.5648 4.25003 14.1876C4.3067 14.7884 4.47732 15.2243 4.73542 15.5584C5.00005 15.9009 5.40037 16.1929 6.00336 16.4285C7.24602 16.9139 9.1774 17.0976 11.9999 17.0976C14.8222 17.0976 16.754 16.9113 17.9967 16.4246C18.5999 16.1884 19.0005 15.8959 19.2652 15.5535C19.5232 15.2197 19.6935 14.7852 19.7499 14.1876C19.7465 13.5648 19.6484 13.1328 19.5152 12.7842C19.3869 12.4486 19.2222 12.174 19.0147 11.8281L19.0147 11.828L18.9467 11.7144C18.788 11.4488 18.6159 11.1519 18.4601 10.7978C18.9962 10.783 19.5139 10.6943 20.0032 10.5413Z" fill="#191F28"/>
<path fill-rule="evenodd" clip-rule="evenodd" d="M14.4833 4.31647C14.2974 4.31647 14.1314 4.37998 13.999 4.50934C13.8651 4.64028 13.7998 4.80753 13.7998 4.99562C13.7998 5.18366 13.865 5.35103 13.9968 5.48403C14.1287 5.61712 14.2954 5.6835 14.4833 5.6835H17.3163V8.51647C17.3163 8.70243 17.3798 8.86845 17.5092 9.0008C17.6401 9.13472 17.8074 9.19999 17.9954 9.19999C18.1835 9.19999 18.3508 9.13484 18.4838 9.00304C18.6169 8.87114 18.6833 8.70441 18.6833 8.51647V5.6835H21.5163C21.7022 5.6835 21.8682 5.62 22.0006 5.49063C22.1345 5.3597 22.1998 5.19244 22.1998 5.00436C22.1998 4.81632 22.1346 4.64895 22.0028 4.51595C21.8709 4.38286 21.7042 4.31647 21.5163 4.31647H18.6833V1.4835C18.6833 1.29754 18.6198 1.13152 18.4904 0.999177C18.3595 0.865251 18.1922 0.799988 18.0042 0.799988C17.8161 0.799988 17.6488 0.865132 17.5158 0.996931C17.3827 1.12884 17.3163 1.29556 17.3163 1.4835V4.31647H14.4833ZM14.4455 5.48227C14.325 5.47435 14.2228 5.42801 14.1388 5.34324C14.0461 5.24972 13.9998 5.13384 13.9998 4.99562C13.9998 4.85739 14.0461 4.74297 14.1388 4.65236C14.2315 4.56177 14.3463 4.51647 14.4833 4.51647H17.5163V1.4835C17.5163 1.34651 17.563 1.23167 17.6566 1.13899C17.7501 1.04632 17.8659 0.999988 18.0042 0.999988C18.0161 0.999988 18.0278 1.00033 18.0394 1.00102C18.0279 1.00034 18.0162 1 18.0044 1C17.8661 1 17.7503 1.04633 17.6568 1.139C17.5632 1.23169 17.5165 1.34652 17.5165 1.48351V4.51649H14.4835C14.3465 4.51649 14.2317 4.56178 14.139 4.65237C14.0463 4.74298 14 4.8574 14 4.99563C14 5.13386 14.0463 5.24973 14.139 5.34326C14.223 5.42797 14.3251 5.47431 14.4455 5.48227ZM18.4835 4.51647V4.51649H21.5165C21.5282 4.51649 21.5398 4.51683 21.5512 4.51752C21.5397 4.51682 21.5281 4.51647 21.5163 4.51647H18.4835ZM17.9447 8.99782C17.8291 8.98765 17.7316 8.94204 17.6524 8.861C17.5618 8.76831 17.5165 8.65348 17.5165 8.51649V5.48351H17.5163V8.51647C17.5163 8.65346 17.5616 8.7683 17.6522 8.86099C17.7315 8.94207 17.829 8.98768 17.9447 8.99782Z" fill="#191F28"/>
</svg>
