<svg xmlns="http://www.w3.org/2000/svg" width="351" height="68" fill="none"><g filter="url(#a)"><rect width="345" height="54" x="3" y="6" fill="#fff" rx="10"/><path fill="#fff" d="M52.5 18.5h24v24h-24z"/><path fill="#4285F4" fill-rule="evenodd" d="M75.54 30.761c0-.815-.073-1.6-.21-2.352H64.5v4.449h6.19a5.29 5.29 0 0 1-2.296 3.47v2.886h3.717c2.174-2.002 3.429-4.95 3.429-8.453Z" clip-rule="evenodd"/><path fill="#34A853" fill-rule="evenodd" d="M64.5 42c3.105 0 5.708-1.03 7.61-2.786l-3.716-2.886c-1.03.69-2.347 1.098-3.894 1.098-2.995 0-5.53-2.023-6.435-4.741h-3.842v2.98A11.496 11.496 0 0 0 64.5 42Z" clip-rule="evenodd"/><path fill="#FBBC05" fill-rule="evenodd" d="M58.065 32.685a6.913 6.913 0 0 1-.36-2.185c0-.758.13-1.495.36-2.185v-2.98h-3.842A11.495 11.495 0 0 0 53 30.5c0 1.856.444 3.612 1.223 5.165l3.842-2.98Z" clip-rule="evenodd"/><path fill="#EA4335" fill-rule="evenodd" d="M64.5 23.574c1.688 0 3.204.58 4.396 1.72l3.298-3.299C70.203 20.14 67.6 19 64.5 19a11.495 11.495 0 0 0-10.277 6.335l3.842 2.98c.904-2.718 3.44-4.741 6.435-4.741Z" clip-rule="evenodd"/><path fill="#000" fill-opacity=".54" d="M99.44 41.76c-3.92 0-6.8-2.76-6.8-7.58 0-4.8 2.96-7.68 6.86-7.68 2.08 0 3.48.92 4.38 1.86l-1.24 1.48c-.74-.74-1.64-1.32-3.06-1.32-2.74 0-4.56 2.12-4.56 5.58 0 3.5 1.62 5.64 4.66 5.64.9 0 1.8-.26 2.32-.72v-3.46h-2.92v-1.9h5.02v6.38c-.98.98-2.64 1.72-4.66 1.72Zm12.223 0c-2.72 0-5.18-2.1-5.18-5.76 0-3.66 2.46-5.78 5.18-5.78 2.72 0 5.18 2.12 5.18 5.78s-2.46 5.76-5.18 5.76Zm0-1.88c1.74 0 2.82-1.54 2.82-3.88 0-2.32-1.08-3.88-2.82-3.88-1.72 0-2.8 1.56-2.8 3.88 0 2.34 1.08 3.88 2.8 3.88Zm12.286 1.88c-2.72 0-5.18-2.1-5.18-5.76 0-3.66 2.46-5.78 5.18-5.78 2.72 0 5.18 2.12 5.18 5.78s-2.46 5.76-5.18 5.76Zm0-1.88c1.74 0 2.82-1.54 2.82-3.88 0-2.32-1.08-3.88-2.82-3.88-1.72 0-2.8 1.56-2.8 3.88 0 2.34 1.08 3.88 2.8 3.88Zm11.645 6.56c-2.64 0-4.56-.98-4.56-2.9 0-.92.58-1.78 1.6-2.4v-.1c-.56-.34-1-.92-1-1.82 0-.86.62-1.6 1.24-2.04v-.08c-.76-.58-1.46-1.62-1.46-2.94 0-2.48 1.98-3.94 4.26-3.94.62 0 1.18.12 1.6.28h3.9v1.72h-2.1c.42.44.72 1.18.72 2.02 0 2.4-1.82 3.78-4.12 3.78-.5 0-1.06-.12-1.54-.34-.36.32-.6.62-.6 1.16 0 .66.44 1.08 1.84 1.08h2.02c2.6 0 3.96.8 3.96 2.68 0 2.12-2.24 3.84-5.76 3.84Zm.08-9.9c1.14 0 2.08-.9 2.08-2.38 0-1.46-.92-2.32-2.08-2.32-1.16 0-2.08.84-2.08 2.32s.94 2.38 2.08 2.38Zm.26 8.38c1.92 0 3.2-.94 3.2-1.96 0-.92-.72-1.2-2.06-1.2h-1.66c-.52 0-1.02-.06-1.48-.16-.66.48-.94 1.04-.94 1.6 0 1.08 1.12 1.72 2.94 1.72Zm9.742-3.16c-1.66 0-2.28-1.06-2.28-2.84V25.56h2.3v13.48c0 .62.26.84.54.84.1 0 .18 0 .38-.04l.3 1.74c-.28.1-.66.18-1.24.18Zm8.257 0c-2.98 0-5.36-2.12-5.36-5.76 0-3.56 2.46-5.78 5.02-5.78 2.92 0 4.5 2.1 4.5 5.2 0 .46-.06.9-.12 1.18h-7.14c.18 2.1 1.5 3.36 3.4 3.36.98 0 1.82-.3 2.62-.82l.8 1.46c-1.02.68-2.28 1.16-3.72 1.16Zm-3.12-6.76h5.28c0-1.88-.86-2.98-2.46-2.98-1.38 0-2.6 1.06-2.82 2.98Zm23.441-5.14v-4.44h1.92v16.74h-1.92v-6.08h-2.96V34.4h2.96v-2.86h-2.64c-.84 3.04-2.74 5.66-6.12 7.68l-1.18-1.46c3.72-2.26 5.52-5.2 5.82-8.9h-4.94V27.2h6.98c0 .92-.06 1.82-.2 2.66h2.28Zm3.64-4.88h1.98v18.06h-1.98V24.98Zm14.639 4.54h3.2v-4.54h2.06v10.76h-2.06V31.2h-3.2v-1.68Zm1.039 4.02-1.019 1.62c-2-.7-3.44-2.12-4.2-3.86-.8 1.98-2.32 3.58-4.46 4.34l-1.06-1.64c2.8-1 4.42-3.4 4.42-5.88v-.26h-3.82V26.2h9.66v1.66h-3.76v.24c0 2.26 1.54 4.5 4.239 5.44Zm-1.779 7.92c2.54 0 4.02-.64 4.02-1.82 0-1.18-1.48-1.82-4.02-1.82-2.58 0-4.04.64-4.04 1.82 0 1.18 1.46 1.82 4.04 1.82Zm0-5.24c3.76 0 6.08 1.28 6.08 3.42 0 2.16-2.32 3.42-6.08 3.42-3.78 0-6.1-1.26-6.1-3.42 0-2.14 2.32-3.42 6.1-3.42ZM209.391 26c3.76 0 6.64 2.04 6.64 5.1 0 3.08-2.88 5.1-6.64 5.1-3.78 0-6.64-2.02-6.64-5.1 0-3.06 2.86-5.1 6.64-5.1Zm0 1.7c-2.68 0-4.64 1.32-4.64 3.4s1.96 3.4 4.64 3.4c2.66 0 4.64-1.32 4.64-3.4s-1.98-3.4-4.64-3.4Zm-8.16 11.36h16.36v1.7h-16.36v-1.7Zm27.578.16h7.18v1.7h-16.36v-1.7h7.12v-3.08h-5.14v-5.82h10.4V27.9h-10.44v-1.66h12.48v5.72h-10.42v2.52h10.82v1.66h-5.64v3.08Zm24.004 0h7.18v1.7h-16.36v-1.7h7.12v-3.08h-5.14v-5.82h10.4V27.9h-10.44v-1.66h12.48v5.72h-10.42v2.52h10.82v1.66h-5.64v3.08Zm21.399-10.5v-.28h-10.44v-1.66h12.5v1.94c0 2.42 0 4.96-.68 8.78l-2.08-.22c.7-3.56.7-6.22.7-8.56Zm-12.18 10.1h16.34v1.7h-16.34v-1.7Zm33.278-13.84V38.1h-2.06V24.98h2.06Zm-12.52 5.72c0 1.64 1.18 2.74 2.78 2.74 1.58 0 2.78-1.1 2.78-2.74 0-1.66-1.2-2.74-2.78-2.74-1.6 0-2.78 1.08-2.78 2.74Zm7.56 0c0 2.62-2.06 4.52-4.78 4.52s-4.8-1.9-4.8-4.52c0-2.64 2.08-4.52 4.8-4.52 2.72 0 4.78 1.88 4.78 4.52Zm-4.76 10.32h10.24v1.68h-12.32v-5.92h2.08v4.24Z"/></g><defs><filter id="a" width="351" height="67" x="0" y=".5" color-interpolation-filters="sRGB" filterUnits="userSpaceOnUse"><feFlood flood-opacity="0" result="BackgroundImageFix"/><feColorMatrix in="SourceAlpha" result="hardAlpha" values="0 0 0 0 0 0 0 0 0 0 0 0 0 0 0 0 0 0 127 0"/><feOffset dy="2"/><feGaussianBlur stdDeviation="1.5"/><feColorMatrix values="0 0 0 0 0 0 0 0 0 0 0 0 0 0 0 0 0 0 0.168 0"/><feBlend in2="BackgroundImageFix" result="effect1_dropShadow_303_95"/><feColorMatrix in="SourceAlpha" result="hardAlpha" values="0 0 0 0 0 0 0 0 0 0 0 0 0 0 0 0 0 0 127 0"/><feOffset/><feGaussianBlur stdDeviation="1.5"/><feColorMatrix values="0 0 0 0 0 0 0 0 0 0 0 0 0 0 0 0 0 0 0.084 0"/><feBlend in2="effect1_dropShadow_303_95" result="effect2_dropShadow_303_95"/><feBlend in="SourceGraphic" in2="effect2_dropShadow_303_95" result="shape"/></filter></defs></svg>